/* XPM */
static char *result[] = {
/* columns rows colors chars-per-pixel */
"48 48 4 1 ",
"  c black",
". c #85501B",
"X c #22B14C",
"o c #EBC51C",
/* pixels */
"                                                ",
" XXXXXXXXXXXXXXXXXXXXXXXXXXXXXXXXXXXXXXXXXXXXXX ",
" XXXXXXXXXXXXXXXXXXXXXXXXXXXXXXXXXXXXXXXXXXXXXX ",
" XXXXXXXXXXXXXXXXXXXXXXXXXXXXXXXXXXXXXXXXXXXXXX ",
" XXXXXXXXXXXXXXXXXXXXXXXXXXXXXXXXXXXXXXXXXXXXXX ",
" XXXXXXXXXXXXXXXXXXXXXXXXXXXXXXXXXXXXXXXXXXXXXX ",
" XXXXXXXXXXXXXXXXXXXXXXXXXXXXXXXXXXXXXXXXXXXXXX ",
" XXXXXXXXXXXXXXXXXXXXXXXXXXXXXXXXXXXXXXXXXXXXXX ",
" XXXXXXXXXXXXXXXXXXX.........XXXXXXXXXXXXXXXXXX ",
" XXXXXXXXXXXXXXXX...ooooooooo...XXXXXXXXXXXXXXX ",
" XXXXXXXXXXXXXX..ooooooooooooooo..XXXXXXXXXXXXX ",
" XXXXXXXXXXXXX.ooooooooooooooooooo.XXXXXXXXXXXX ",
" XXXXXXXXXXXX.ooooooooooooooooooooo.XXXXXXXXXXX ",
" XXXXXXXXXXX.ooooooooooooooooooooooo.XXXXXXXXXX ",
" XXXXXXXXXX.ooooooooooooooooooooooooo.XXXXXXXXX ",
" XXXXXXXXX.ooooooooooooooooooooooooooo.XXXXXXXX ",
" XXXXXXXX.ooooooooooo...ooooooooooooooo.XXXXXXX ",
" XXXXXXXX.ooooooooooo...ooooooooooooooo.XXXXXXX ",
" XXXXXXX.oooooooooooo...oooooooooooooooo.XXXXXX ",
" XXXXXXX.oooooooooooo...oooooooooooooooo.XXXXXX ",
" XXXXXXX.oooooooooooo...oooooooooooooooo.XXXXXX ",
" XXXXXX.ooooooooooooo...ooooooooooooooooo.XXXXX ",
" XXXXXX.ooooooooooooo...ooooooooooooooooo.XXXXX ",
" XXXXXX.ooooooooooooo...ooooooooooooooooo.XXXXX ",
" XXXXXX.ooooooooooooo...ooooooooooooooooo.XXXXX ",
" XXXXXX.ooooooooooooo...ooooooooooooooooo.XXXXX ",
" XXXXXX.ooooooooooooo...ooooooooooooooooo.XXXXX ",
" XXXXXX.ooooooooooooo...ooooooooooooooooo.XXXXX ",
" XXXXXXX.oooooooooooo...oooooooooooooooo.XXXXXX ",
" XXXXXXX.oooooooooooo...oooooooooooooooo.XXXXXX ",
" XXXXXXX.oooooooooooo...oooooooooooooooo.XXXXXX ",
" XXXXXXXX.ooooooooooo...ooooooooooooooo.XXXXXXX ",
" XXXXXXXX.ooooooooooo...ooooooooooooooo.XXXXXXX ",
" XXXXXXXXX.oooooooooo...oooooooooooooo.XXXXXXXX ",
" XXXXXXXXXX.ooooooooo...ooooooooooooo.XXXXXXXXX ",
" XXXXXXXXXXX.ooooooooooooooooooooooo.XXXXXXXXXX ",
" XXXXXXXXXXXX.ooooooooooooooooooooo.XXXXXXXXXXX ",
" XXXXXXXXXXXXX.ooooooooooooooooooo.XXXXXXXXXXXX ",
" XXXXXXXXXXXXXX..ooooooooooooooo..XXXXXXXXXXXXX ",
" XXXXXXXXXXXXXXXX...ooooooooo...XXXXXXXXXXXXXXX ",
" XXXXXXXXXXXXXXXXXXX.........XXXXXXXXXXXXXXXXXX ",
" XXXXXXXXXXXXXXXXXXXXXXXXXXXXXXXXXXXXXXXXXXXXXX ",
" XXXXXXXXXXXXXXXXXXXXXXXXXXXXXXXXXXXXXXXXXXXXXX ",
" XXXXXXXXXXXXXXXXXXXXXXXXXXXXXXXXXXXXXXXXXXXXXX ",
" XXXXXXXXXXXXXXXXXXXXXXXXXXXXXXXXXXXXXXXXXXXXXX ",
" XXXXXXXXXXXXXXXXXXXXXXXXXXXXXXXXXXXXXXXXXXXXXX ",
" XXXXXXXXXXXXXXXXXXXXXXXXXXXXXXXXXXXXXXXXXXXXXX ",
"                                                "
};
