/* XPM */
static char *result[] = {
/* columns rows colors chars-per-pixel */
"48 48 4 1 ",
"  c black",
". c #0C577D",
"X c #ED1C24",
"o c #22B14C",
/* pixels */
"                                                ",
" oooooooooooooooooooooooooooooooooooooooooooooo ",
" oooooooooooooooooooooooooooooooooooooooooooooo ",
" oooooooooooooooooooooooooooooooooooooooooooooo ",
" oooooooooooooooooooooooooooooooooooooooooooooo ",
" oooooooooooooooooooooooooooooooooooooooooooooo ",
" oooooooooooooooooooXXXXXXXXXoooooooooooooooooo ",
" ooooooooooooooooXXXoooooooooXXXooooooooooooooo ",
" oooooooooooooo..ooooooooooooooo..ooooooooooooo ",
" ooooooooooooo.ooooooooooooooooooo.oooooooooooo ",
" oooooooooooo.ooooooooooooooooooooo.ooooooooooo ",
" ooooooooooo.ooooooooooooooooooooooo.oooooooooo ",
" oooooooooo.ooooooooooooooooooooooooo.ooooooooo ",
" ooooooooo.ooooooooooooooooooooooooooo.oooooooo ",
" oooooooo.ooooooooooooooooooooooooooooo.ooooooo ",
" ooooooo.ooooooooooooooooooooooooooooooo.oooooo ",
" ooooooo.ooooooooooooooooooooooooooooooo.oooooo ",
" ooooooXoooooooooooooooooooooooooooooooooXooooo ",
" ooooooXoooooooooooooooooooooooooooooooooXooooo ",
" ooooooXoooooooooooooooooooooooooooooooooXooooo ",
" oooooXoooooooooooooooooooooooooooooooooooXoooo ",
" oooooXoooooooooooooooooooooooooooooooooooXoooo ",
" oooooXoooooooooooooooooooooooooooooooooooXoooo ",
" oooooXoooooooooooooooooooooooooooooooooooXoooo ",
" oooooXoooooooooooooooooooooooooooooooooooXoooo ",
" oooooXoooooooooooooooooooooooooooooooooooXoooo ",
" oooooXoooooooooooooooooooooooooooooooooooXoooo ",
" oooooXoooooooooooooooooooooooooooooooooooXoooo ",
" oooooXoooooooooooooooooooooooooooooooooooXoooo ",
" ooooooXoooooooooooooooooooooooooooooooooXooooo ",
" ooooooXoooooooooooooooooooooooooooooooooXooooo ",
" ooooooXoooooooooooooooooooooooooooooooooXooooo ",
" ooooooo.ooooooooooooooooooooooooooooooo.oooooo ",
" ooooooo.ooooooooooooooooooooooooooooooo.oooooo ",
" oooooooo.ooooooooooooooooooooooooooooo.ooooooo ",
" ooooooooo.ooooooooooooooooooooooooooo.oooooooo ",
" oooooooooo.ooooooooooooooooooooooooo.ooooooooo ",
" ooooooooooo.ooooooooooooooooooooooo.oooooooooo ",
" oooooooooooo.ooooooooooooooooooooo.ooooooooooo ",
" ooooooooooooo.ooooooooooooooooooo.oooooooooooo ",
" oooooooooooooo..ooooooooooooooo..ooooooooooooo ",
" ooooooooooooooooXXXoooooooooXXXooooooooooooooo ",
" oooooooooooooooooooXXXXXXXXXoooooooooooooooooo ",
" oooooooooooooooooooooooooooooooooooooooooooooo ",
" oooooooooooooooooooooooooooooooooooooooooooooo ",
" oooooooooooooooooooooooooooooooooooooooooooooo ",
" oooooooooooooooooooooooooooooooooooooooooooooo ",
"                                                "
};
