/* XPM */
static char *result[] = {
/* columns rows colors chars-per-pixel */
"48 48 3 1 ",
"  c black",
". c #0C577D",
"X c #22B14C",
/* pixels */
"                                                ",
" XXXXXXXXXXXXXXXXXXXXXXXXXXXXXXXXXXXXXXXXXXXXXX ",
" XXXXXXXXXXXXXXXXXXXXXXXXXXXXXXXXXXXXXXXXXXXXXX ",
" XXXXXXXXXXXXXXXXXXXXXXXXXXXXXXXXXXXXXXXXXXXXXX ",
" XXXXXXXXXXXXXXXXXXXXXXXXXXXXXXXXXXXXXXXXXXXXXX ",
" XXXXXXXXXXXXXXXXXXXXXXXXXXXXXXXXXXXXXXXXXXXXXX ",
" XXXXXXXXXXXXXXXXXXXXXXXXXXXXXXXXXXXXXXXXXXXXXX ",
" XXXXXXXXXXXXXXXXXXXXXXXXXXXXXXXXXXXXXXXXXXXXXX ",
" XXXXXXXXXXXXXXXXXXXX.......XXXXXXXXXXXXXXXXXXX ",
" XXXXXXXXXXXXXXXXXX..XXXXXXX..XXXXXXXXXXXXXXXXX ",
" XXXXXXXXXXXXXXX...XXXXXXXXXXX.XXXXXXXXXXXXXXXX ",
" XXXXXXXXXXXXXXX.X.XXXXXXXXXXX.XXXXXXXXXXXXXXXX ",
" XXXXXXXXXXXXXXX...XXXXXXXXXXX.XXXXXXXXXXXXXXXX ",
" XXXXXXXXXXXXXXXXXX..XXXXXXX..XXXXXXXXXXXXXXXXX ",
" XXXXXXXXXXXXXXXXXXX........XXXXXXXXXXXXXXXXXXX ",
" XXXXXXXXXXXXXXXXXXX.XXXXXX.XXXXXXXXXXXXXXXXXXX ",
" XXXXXXXXXXXXXXXXXXX.XXXXXX.XXXXXXXXXXXXXXXXXXX ",
" XXXXXXXXXXXXXXXXXXX.XXXXXX.XXXXXXXXXXXXXXXXXXX ",
" XXXXXXXXXXXXXXXXXXX.XXXXXX.XXXXXXXXXXXXXXXXXXX ",
" XXXXXXXXXXXXXXXXXXX.XXXXXX.XXXXXXXXXXXXXXXXXXX ",
" XXXXXXXXXXXXXXXXXXX.XXXXXX.XXXXXXXXXXXXXXXXXXX ",
" XXXXXXXXXXXXXXXXXXX.XXXXXX.XXXXXXXXXXXXXXXXXXX ",
" XXXXXXXXXXXXXXXXXXX.XXXXXX.XXXXXXXXXXXXXXXXXXX ",
" XXXXXXXXXXXXXXXXXXX.XXXXXX.XXXXXXXXXXXXXXXXXXX ",
" XXXXXXXXXXXXXXXXXXX.XXXXXX.XXXXXXXXXXXXXXXXXXX ",
" XXXXXXXXXXXXXXXXXXX.XXXXXX.XXXXXXXXXXXXXXXXXXX ",
" XXXXXXXXXXXXXXXXXXX.XXXXXX.XXXXXXXXXXXXXXXXXXX ",
" XXXXXXXXXXXXXXXXXXX.XXXXXX.XXXXXXXXXXXXXXXXXXX ",
" XXXXXXXXXXXXXXXXXXX.XXXXXX.XXXXXXXXXXXXXXXXXXX ",
" XXXXXXXXXXXXXXXXXXX.XXXXXX.XXXXXXXXXXXXXXXXXXX ",
" XXXXXXXXXXXXXXXXXXX.XXXXXX.XXXXXXXXXXXXXXXXXXX ",
" XXXXXXXXXXXXXXXXXXX.XXXXXX.XXXXXXXXXXXXXXXXXXX ",
" XXXXXXXXXXXXXXXXXXX.XXXXXX.XXXXXXXXXXXXXXXXXXX ",
" XXXXXXXXXXXXXXXXXXX.XXXXXX.XXXXXXXXXXXXXXXXXXX ",
" XXXXXXXXXXXXXXXXXXX.XXXXXX.XXXXXXXXXXXXXXXXXXX ",
" XXXXXXXXXXXXXXXXXXX.XXXXXX.XXXXXXXXXXXXXXXXXXX ",
" XXXXXXXXXXXXXXXXXXX.XXXXXX.XXXXXXXXXXXXXXXXXXX ",
" XXXXXXXXXXXXXXXXXXX.XXXXXX.XXXXXXXXXXXXXXXXXXX ",
" XXXXXXXXXXXXXXXXXXX........XXXXXXXXXXXXXXXXXXX ",
" XXXXXXXXXXXXXXXXXXXXXXXXXXXXXXXXXXXXXXXXXXXXXX ",
" XXXXXXXXXXXXXXXXXXXXXXXXXXXXXXXXXXXXXXXXXXXXXX ",
" XXXXXXXXXXXXXXXXXXXXXXXXXXXXXXXXXXXXXXXXXXXXXX ",
" XXXXXXXXXXXXXXXXXXXXXXXXXXXXXXXXXXXXXXXXXXXXXX ",
" XXXXXXXXXXXXXXXXXXXXXXXXXXXXXXXXXXXXXXXXXXXXXX ",
" XXXXXXXXXXXXXXXXXXXXXXXXXXXXXXXXXXXXXXXXXXXXXX ",
" XXXXXXXXXXXXXXXXXXXXXXXXXXXXXXXXXXXXXXXXXXXXXX ",
" XXXXXXXXXXXXXXXXXXXXXXXXXXXXXXXXXXXXXXXXXXXXXX ",
"                                                "
};
